<svg width="20" height="16" viewBox="0 0 20 16" fill="none" xmlns="http://www.w3.org/2000/svg">
<path d="M16.3344 6.9C16.4406 6.62188 16.5 6.31875 16.5 6C16.5 4.61875 15.3813 3.5 14 3.5C13.4844 3.5 13.0094 3.65625 12.6125 3.92188C12.4969 4 12.3562 4.025 12.2219 3.99375C12.0875 3.9625 11.9719 3.875 11.9031 3.75625C11.1219 2.40625 9.66562 1.5 8 1.5C5.51562 1.5 3.5 3.51562 3.5 6C3.5 6.07812 3.50312 6.15313 3.50625 6.22813C3.51875 6.45 3.38125 6.65 3.17188 6.725C1.61563 7.27187 0.5 8.75625 0.5 10.5C0.5 12.7094 2.29063 14.5 4.5 14.5H16C17.9344 14.5 19.5 12.9344 19.5 11C19.5 9.30625 18.2969 7.89375 16.7 7.56875C16.5563 7.54063 16.4312 7.44688 16.3594 7.31875C16.2875 7.19062 16.2781 7.03438 16.3312 6.9H16.3344ZM8 1C9.675 1 11.1562 1.82187 12.0625 3.08437C12.1594 3.21875 12.25 3.35938 12.3344 3.50312C12.4438 3.42812 12.5594 3.3625 12.6781 3.30312C13.0781 3.10938 13.525 3 14 3C15.6562 3 17 4.34375 17 6C17 6.20625 16.9781 6.40625 16.9406 6.6C16.9062 6.76562 16.8594 6.92813 16.8 7.08125C16.9656 7.11563 17.1281 7.15938 17.2844 7.2125C18.8625 7.74688 20 9.24063 20 11C20 13.2094 18.2094 15 16 15H4.5C2.01562 15 0 12.9844 0 10.5C0 8.5375 1.25625 6.86875 3.00625 6.25313C3.00312 6.16875 3 6.08437 3 6C3 3.2375 5.2375 1 8 1ZM7.07188 8.57187L9.82187 5.82188C9.91875 5.725 10.0781 5.725 10.175 5.82188L12.925 8.57187C13.0219 8.66875 13.0219 8.82812 12.925 8.925C12.8281 9.02188 12.6687 9.02188 12.5719 8.925L10.25 6.60313V12.75C10.25 12.8875 10.1375 13 10 13C9.8625 13 9.75 12.8875 9.75 12.75V6.60313L7.42812 8.925C7.33125 9.02188 7.17188 9.02188 7.075 8.925C6.97812 8.82812 6.97812 8.66875 7.075 8.57187H7.07188Z" fill="black"/>
</svg>
