<svg width="21" height="19" viewBox="0 0 21 19" fill="none" xmlns="http://www.w3.org/2000/svg">
<path d="M15.2175 1.84932L19.1064 5.78682C19.2141 5.8958 19.2141 6.0751 19.1064 6.18408C18.9988 6.29307 18.8217 6.29307 18.7141 6.18408L15.2974 2.72822V17.2372C15.2974 17.3919 15.1724 17.5185 15.0196 17.5185C14.8668 17.5185 14.7418 17.3919 14.7418 17.2372V2.72822L11.3287 6.18408C11.221 6.29307 11.0439 6.29307 10.9363 6.18408C10.8287 6.0751 10.8287 5.8958 10.9363 5.78682L14.8252 1.84932C14.9328 1.74033 15.1099 1.74033 15.2175 1.84932ZM10.2175 13.4966L6.32865 17.4341C6.22101 17.5431 6.04393 17.5431 5.93629 17.4341L2.0474 13.4966C1.93977 13.3876 1.93977 13.2083 2.0474 13.0993C2.15504 12.9903 2.33213 12.9903 2.43977 13.0993L5.85296 16.5587V2.04971C5.85296 1.89502 5.97796 1.76846 6.13074 1.76846C6.28351 1.76846 6.40851 1.89502 6.40851 2.04971V16.5587L9.82171 13.1028C9.92935 12.9938 10.1064 12.9938 10.2141 13.1028C10.3217 13.2118 10.3217 13.3911 10.2141 13.5001L10.2175 13.4966Z" fill="black"/>
</svg>
