<svg width="21" height="18" viewBox="0 0 21 18" fill="none" xmlns="http://www.w3.org/2000/svg">
<g clip-path="url(#clip0_292_1021)">
<path d="M3.73709 4.36992C5.32263 2.89688 7.46716 1.6875 10.125 1.6875C12.7828 1.6875 14.9273 2.89688 16.5129 4.36992C18.0914 5.83594 19.1496 7.59375 19.6453 8.78555C19.7015 8.92266 19.7015 9.08086 19.6453 9.21797C19.1496 10.4062 18.0914 12.1641 16.5129 13.6301C14.9273 15.1031 12.7828 16.3125 10.125 16.3125C7.46716 16.3125 5.32263 15.1031 3.73709 13.6301C2.15857 12.1641 1.10037 10.4062 0.604663 9.21797C0.548413 9.08086 0.548413 8.92266 0.604663 8.78555C1.10037 7.59375 2.15857 5.83594 3.73709 4.36992ZM10.125 1.125C7.28435 1.125 5.00974 2.41875 3.35388 3.95859C1.70857 5.48438 0.608179 7.3125 0.0878662 8.56758C-0.0281494 8.84531 -0.0281494 9.15469 0.0878662 9.43242C0.608179 10.6875 1.70857 12.5156 3.35388 14.0414C5.00974 15.5813 7.28435 16.875 10.125 16.875C12.9656 16.875 15.2402 15.5813 16.8961 14.0414C18.5414 12.5121 19.6418 10.6875 20.1656 9.43242C20.2816 9.15469 20.2816 8.84531 20.1656 8.56758C19.6418 7.3125 18.5414 5.48438 16.8961 3.95859C15.2402 2.41875 12.9656 1.125 10.125 1.125ZM6.74998 9C6.74998 8.10489 7.10556 7.24645 7.73849 6.61351C8.37143 5.98058 9.22987 5.625 10.125 5.625C11.0201 5.625 11.8785 5.98058 12.5115 6.61351C13.1444 7.24645 13.5 8.10489 13.5 9C13.5 9.89511 13.1444 10.7536 12.5115 11.3865C11.8785 12.0194 11.0201 12.375 10.125 12.375C9.22987 12.375 8.37143 12.0194 7.73849 11.3865C7.10556 10.7536 6.74998 9.89511 6.74998 9ZM14.0625 9C14.0625 8.48292 13.9606 7.9709 13.7628 7.49318C13.5649 7.01546 13.2748 6.5814 12.9092 6.21577C12.5436 5.85014 12.1095 5.5601 11.6318 5.36222C11.1541 5.16435 10.6421 5.0625 10.125 5.0625C9.6079 5.0625 9.09588 5.16435 8.61816 5.36222C8.14044 5.5601 7.70637 5.85014 7.34074 6.21577C6.97511 6.5814 6.68508 7.01546 6.4872 7.49318C6.28932 7.9709 6.18748 8.48292 6.18748 9C6.18748 9.51708 6.28932 10.0291 6.4872 10.5068C6.68508 10.9845 6.97511 11.4186 7.34074 11.7842C7.70637 12.1499 8.14044 12.4399 8.61816 12.6378C9.09588 12.8357 9.6079 12.9375 10.125 12.9375C10.6421 12.9375 11.1541 12.8357 11.6318 12.6378C12.1095 12.4399 12.5436 12.1499 12.9092 11.7842C13.2748 11.4186 13.5649 10.9845 13.7628 10.5068C13.9606 10.0291 14.0625 9.51708 14.0625 9Z" fill="black"/>
</g>
<defs>
<clipPath id="clip0_292_1021">
<rect width="20.25" height="18" fill="white"/>
</clipPath>
</defs>
</svg>
