<svg width="20" height="21" viewBox="0 0 20 21" fill="none" xmlns="http://www.w3.org/2000/svg">
<g clip-path="url(#clip0_187_960)">
<path d="M10 1.125C11.2311 1.125 12.4502 1.36749 13.5877 1.83863C14.7251 2.30977 15.7586 3.00032 16.6291 3.87087C17.4997 4.74142 18.1902 5.77492 18.6614 6.91234C19.1325 8.04977 19.375 9.26886 19.375 10.5C19.375 11.7311 19.1325 12.9502 18.6614 14.0877C18.1902 15.2251 17.4997 16.2586 16.6291 17.1291C15.7586 17.9997 14.7251 18.6902 13.5877 19.1614C12.4502 19.6325 11.2311 19.875 10 19.875C8.76886 19.875 7.54977 19.6325 6.41234 19.1614C5.27492 18.6902 4.24142 17.9997 3.37087 17.1291C2.50032 16.2586 1.80977 15.2251 1.33863 14.0877C0.867491 12.9502 0.625 11.7311 0.625 10.5C0.625 9.26886 0.867491 8.04977 1.33863 6.91234C1.80977 5.77492 2.50032 4.74142 3.37087 3.87087C4.24142 3.00032 5.27492 2.30977 6.41234 1.83863C7.54977 1.36749 8.76886 1.125 10 1.125ZM10 20.5C12.6522 20.5 15.1957 19.4464 17.0711 17.5711C18.9464 15.6957 20 13.1522 20 10.5C20 7.84784 18.9464 5.3043 17.0711 3.42893C15.1957 1.55357 12.6522 0.5 10 0.5C7.34784 0.5 4.8043 1.55357 2.92893 3.42893C1.05357 5.3043 0 7.84784 0 10.5C0 13.1522 1.05357 15.6957 2.92893 17.5711C4.8043 19.4464 7.34784 20.5 10 20.5ZM8.125 14.25C7.95312 14.25 7.8125 14.3906 7.8125 14.5625C7.8125 14.7344 7.95312 14.875 8.125 14.875H11.875C12.0469 14.875 12.1875 14.7344 12.1875 14.5625C12.1875 14.3906 12.0469 14.25 11.875 14.25H10.3125V8.9375C10.3125 8.76562 10.1719 8.625 10 8.625H8.75C8.57812 8.625 8.4375 8.76562 8.4375 8.9375C8.4375 9.10938 8.57812 9.25 8.75 9.25H9.6875V14.25H8.125ZM10 7.375C10.1658 7.375 10.3247 7.30915 10.4419 7.19194C10.5592 7.07473 10.625 6.91576 10.625 6.75C10.625 6.58424 10.5592 6.42527 10.4419 6.30806C10.3247 6.19085 10.1658 6.125 10 6.125C9.83424 6.125 9.67527 6.19085 9.55806 6.30806C9.44085 6.42527 9.375 6.58424 9.375 6.75C9.375 6.91576 9.44085 7.07473 9.55806 7.19194C9.67527 7.30915 9.83424 7.375 10 7.375Z" fill="black"/>
</g>
<defs>
<clipPath id="clip0_187_960">
<rect width="20" height="20" fill="white" transform="translate(0 0.5)"/>
</clipPath>
</defs>
</svg>
