<svg width="21" height="28" viewBox="0 0 21 28" fill="none" xmlns="http://www.w3.org/2000/svg">
<g clip-path="url(#clip0_283_1406)">
<path d="M19.9167 10.625C19.9167 5.49922 15.8125 1.34375 10.75 1.34375C5.6875 1.34375 1.58333 5.49922 1.58333 10.625C1.58333 11.6111 1.91667 12.8662 2.51042 14.2953C3.09896 15.7139 3.92188 17.2379 4.83854 18.7408C6.67188 21.7467 8.83854 24.6154 10.1667 26.2924C10.474 26.6773 11.0312 26.6773 11.3333 26.2924C12.6615 24.6154 14.8281 21.7467 16.6615 18.7408C17.5781 17.2379 18.401 15.7139 18.9896 14.2953C19.5833 12.8662 19.9167 11.6111 19.9167 10.625ZM20.75 10.625C20.75 15.234 14.6562 23.4395 11.9844 26.825C11.3438 27.6318 10.1562 27.6318 9.51562 26.825C6.84375 23.4395 0.75 15.234 0.75 10.625C0.75 5.03516 5.22917 0.5 10.75 0.5C16.2708 0.5 20.75 5.03516 20.75 10.625ZM10.75 6.40625C11.8551 6.40625 12.9149 6.85072 13.6963 7.64189C14.4777 8.43306 14.9167 9.50612 14.9167 10.625C14.9167 11.7439 14.4777 12.8169 13.6963 13.6081C12.9149 14.3993 11.8551 14.8438 10.75 14.8438C9.64493 14.8438 8.58512 14.3993 7.80372 13.6081C7.02232 12.8169 6.58333 11.7439 6.58333 10.625C6.58333 9.50612 7.02232 8.43306 7.80372 7.64189C8.58512 6.85072 9.64493 6.40625 10.75 6.40625ZM14.0833 10.625C14.0833 9.72989 13.7321 8.87145 13.107 8.23851C12.4819 7.60558 11.6341 7.25 10.75 7.25C9.86594 7.25 9.0181 7.60558 8.39298 8.23851C7.76786 8.87145 7.41667 9.72989 7.41667 10.625C7.41667 11.5201 7.76786 12.3786 8.39298 13.0115C9.0181 13.6444 9.86594 14 10.75 14C11.6341 14 12.4819 13.6444 13.107 13.0115C13.7321 12.3786 14.0833 11.5201 14.0833 10.625Z" fill="black"/>
</g>
<defs>
<clipPath id="clip0_283_1406">
<rect width="20" height="27" fill="white" transform="translate(0.75 0.5)"/>
</clipPath>
</defs>
</svg>
