<svg width="20" height="24" viewBox="0 0 20 24" fill="none" xmlns="http://www.w3.org/2000/svg">
<g clip-path="url(#clip0_292_1017)">
<path d="M5 6.25V9.125H15V6.25C15 3.46934 12.7634 1.21875 10 1.21875C7.23661 1.21875 5 3.46934 5 6.25ZM4.28571 9.125V6.25C4.28571 3.07402 6.84375 0.5 10 0.5C13.1562 0.5 15.7143 3.07402 15.7143 6.25V9.125H17.1429C18.7188 9.125 20 10.4143 20 12V20.625C20 22.2107 18.7188 23.5 17.1429 23.5H2.85714C1.28125 23.5 0 22.2107 0 20.625V12C0 10.4143 1.28125 9.125 2.85714 9.125H4.28571ZM4.28571 9.84375H2.85714C1.67411 9.84375 0.714286 10.8096 0.714286 12V20.625C0.714286 21.8154 1.67411 22.7812 2.85714 22.7812H17.1429C18.3259 22.7812 19.2857 21.8154 19.2857 20.625V12C19.2857 10.8096 18.3259 9.84375 17.1429 9.84375H15.7143H15H5H4.28571Z" fill="black"/>
</g>
<defs>
<clipPath id="clip0_292_1017">
<rect width="20" height="23" fill="white" transform="translate(0 0.5)"/>
</clipPath>
</defs>
</svg>
