<svg width="61" height="47" viewBox="0 0 61 47" fill="none" xmlns="http://www.w3.org/2000/svg">
<path d="M60.1123 27.5648V12.7836C60.1123 5.75267 54.3191 0 47.2388 0H0.285278V33.9691C0.285278 41.0002 6.07841 46.7529 13.159 46.7529H60.1123V27.565V27.5648Z" fill="#FF6432"/>
<path d="M29.6453 22.3589H23.8636V10.3649H23.7958L20.4756 22.3589H15.5968L12.1627 10.3879H12.1634V22.3589H6.40369V5.66525H15.3087L17.9782 15.3016L18.0376 15.2916L20.6785 5.66504H29.6453V22.3589Z" fill="#D9D9D9"/>
<path d="M53.9942 40.9704H47.3427V34.5594H38.4344V40.9706H31.7832V24.2471H38.4344V29.3807H47.3427V24.2473H53.9937L53.9942 40.9704ZM22.3487 32.4798C22.3487 29.4118 20.9177 27.8777 18.0558 27.8777C16.6879 27.8777 15.6577 28.1438 14.9658 28.676C14.0227 29.396 13.5508 30.6642 13.5508 32.4798C13.5508 34.4365 14.0382 35.7982 15.0133 36.5654C15.689 37.082 16.7034 37.34 18.0558 37.34C19.3139 37.34 20.3042 36.9959 21.0276 36.3068C21.9083 35.4778 22.3487 34.202 22.3487 32.4798ZM29.4484 32.4919C29.4484 35.7706 28.4182 38.1444 26.3584 39.6121C24.5342 40.9084 21.7667 41.5562 18.0558 41.5562C14.2349 41.5562 11.3964 40.9161 9.54086 39.6355C7.44955 38.1834 6.40411 35.8023 6.40411 32.4919C6.40411 29.3066 7.43368 27.0034 9.49366 25.5824C11.3492 24.3021 14.2032 23.6619 18.0558 23.6619C21.7823 23.6619 24.5659 24.31 26.4056 25.6059C28.4338 27.0426 29.4484 29.3379 29.4484 32.4919ZM47.1957 13.6412C47.1957 10.7034 45.8252 9.23433 43.0847 9.23433C41.7748 9.23433 40.7883 9.48934 40.1261 9.99872C39.2224 10.6885 38.7708 11.9028 38.7708 13.6412C38.7708 15.5151 39.2375 16.8191 40.1709 17.5539C40.8182 18.0486 41.7896 18.2953 43.0847 18.2953C44.2894 18.2953 45.2378 17.9659 45.9308 17.3061C46.7739 16.5121 47.1957 15.2906 47.1957 13.6412ZM53.9942 13.653C53.9942 16.7927 53.0075 19.066 51.0353 20.4712C49.2883 21.7126 46.6383 22.333 43.0845 22.333C39.4256 22.333 36.7076 21.7201 34.9308 20.4938C32.9284 19.1031 31.9271 16.823 31.9271 13.653C31.9271 10.6027 32.9131 8.39731 34.8856 7.03642C36.6624 5.8106 39.3956 5.19727 43.0847 5.19727C46.6536 5.19727 49.3188 5.81785 51.0805 7.05879C53.0229 8.43459 53.9939 10.6327 53.9939 13.653" fill="white"/>
</svg>
