<svg width="20" height="20" viewBox="0 0 20 20" fill="none" xmlns="http://www.w3.org/2000/svg">
<g clip-path="url(#clip0_292_1011)">
<path d="M15 5C15 3.83968 14.4732 2.72688 13.5355 1.90641C12.5979 1.08594 11.3261 0.625 10 0.625C8.67392 0.625 7.40215 1.08594 6.46447 1.90641C5.52678 2.72688 5 3.83968 5 5C5 6.16032 5.52678 7.27312 6.46447 8.09359C7.40215 8.91406 8.67392 9.375 10 9.375C11.3261 9.375 12.5979 8.91406 13.5355 8.09359C14.4732 7.27312 15 6.16032 15 5ZM4.28571 5C4.28571 3.67392 4.88775 2.40215 5.95939 1.46447C7.03103 0.526784 8.48448 0 10 0C11.5155 0 12.969 0.526784 14.0406 1.46447C15.1122 2.40215 15.7143 3.67392 15.7143 5C15.7143 6.32608 15.1122 7.59785 14.0406 8.53553C12.969 9.47322 11.5155 10 10 10C8.48448 10 7.03103 9.47322 5.95939 8.53553C4.88775 7.59785 4.28571 6.32608 4.28571 5ZM0.714286 18.8398C0.714286 19.1367 0.986607 19.375 1.32589 19.375H18.6741C19.0134 19.375 19.2857 19.1367 19.2857 18.8398C19.2857 15.3398 16.0402 12.5 12.0402 12.5H7.95982C3.95982 12.5 0.714286 15.3398 0.714286 18.8398ZM0 18.8398C0 14.9922 3.5625 11.875 7.95982 11.875H12.0402C16.4375 11.875 20 14.9922 20 18.8398C20 19.4805 19.4062 20 18.6741 20H1.32589C0.59375 20 0 19.4805 0 18.8398Z" fill="black"/>
</g>
<defs>
<clipPath id="clip0_292_1011">
<rect width="20" height="20" fill="white"/>
</clipPath>
</defs>
</svg>
