<svg width="20" height="20" viewBox="0 0 20 20" fill="none" xmlns="http://www.w3.org/2000/svg">
<g clip-path="url(#clip0_283_1420)">
<path d="M16.4062 16.8477L3.15234 3.59375C1.58594 5.26953 0.625 7.52344 0.625 10C0.625 15.1758 4.82422 19.375 10 19.375C12.4766 19.375 14.7305 18.4141 16.4062 16.8477ZM16.8477 16.4062C18.4141 14.7305 19.375 12.4766 19.375 10C19.375 4.82422 15.1758 0.625 10 0.625C7.52344 0.625 5.26953 1.58594 3.59375 3.15234L16.8477 16.4062ZM0 10C0 7.34784 1.05357 4.8043 2.92893 2.92893C4.8043 1.05357 7.34784 0 10 0C12.6522 0 15.1957 1.05357 17.0711 2.92893C18.9464 4.8043 20 7.34784 20 10C20 12.6522 18.9464 15.1957 17.0711 17.0711C15.1957 18.9464 12.6522 20 10 20C7.34784 20 4.8043 18.9464 2.92893 17.0711C1.05357 15.1957 0 12.6522 0 10Z" fill="black"/>
</g>
<defs>
<clipPath id="clip0_283_1420">
<rect width="20" height="20" fill="white"/>
</clipPath>
</defs>
</svg>
