<svg width="20" height="20" viewBox="0 0 20 20" fill="none" xmlns="http://www.w3.org/2000/svg">
<path d="M7.6875 1.25C6.87891 1.25 6.16406 1.76563 5.91016 2.53125L5.50391 3.75H2.5C1.12109 3.75 0 4.87109 0 6.25V16.25C0 17.6289 1.12109 18.75 2.5 18.75H17.5C18.8789 18.75 20 17.6289 20 16.25V6.25C20 4.87109 18.8789 3.75 17.5 3.75H14.4961L14.0898 2.53125C13.8359 1.76563 13.1172 1.25 12.3125 1.25H7.6875ZM6.50391 2.73047C6.67188 2.21875 7.15234 1.875 7.6875 1.875H12.3086C12.8477 1.875 13.3242 2.21875 13.4961 2.73047L13.9727 4.16016C14.0156 4.28906 14.1328 4.375 14.2695 4.375H17.5C18.5352 4.375 19.375 5.21484 19.375 6.25V16.25C19.375 17.2852 18.5352 18.125 17.5 18.125H2.5C1.46484 18.125 0.625 17.2852 0.625 16.25V6.25C0.625 5.21484 1.46484 4.375 2.5 4.375H5.73047C5.86328 4.375 5.98438 4.28906 6.02734 4.16016L6.50391 2.73047ZM10 15.625C10.5745 15.625 11.1434 15.5118 11.6742 15.292C12.205 15.0721 12.6873 14.7498 13.0936 14.3436C13.4998 13.9373 13.8221 13.455 14.042 12.9242C14.2618 12.3934 14.375 11.8245 14.375 11.25C14.375 10.6755 14.2618 10.1066 14.042 9.57576C13.8221 9.04496 13.4998 8.56266 13.0936 8.15641C12.6873 7.75015 12.205 7.42789 11.6742 7.20803C11.1434 6.98816 10.5745 6.875 10 6.875C9.42547 6.875 8.85656 6.98816 8.32576 7.20803C7.79496 7.42789 7.31266 7.75015 6.90641 8.15641C6.50015 8.56266 6.17789 9.04496 5.95803 9.57576C5.73816 10.1066 5.625 10.6755 5.625 11.25C5.625 11.8245 5.73816 12.3934 5.95803 12.9242C6.17789 13.455 6.50015 13.9373 6.90641 14.3436C7.31266 14.7498 7.79496 15.0721 8.32576 15.292C8.85656 15.5118 9.42547 15.625 10 15.625ZM6.25 11.25C6.25 10.2554 6.64509 9.30161 7.34835 8.59835C8.05161 7.89509 9.00544 7.5 10 7.5C10.9946 7.5 11.9484 7.89509 12.6517 8.59835C13.3549 9.30161 13.75 10.2554 13.75 11.25C13.75 12.2446 13.3549 13.1984 12.6517 13.9017C11.9484 14.6049 10.9946 15 10 15C9.00544 15 8.05161 14.6049 7.34835 13.9017C6.64509 13.1984 6.25 12.2446 6.25 11.25Z" fill="black"/>
</svg>
