<svg width="20" height="20" viewBox="0 0 20 20" fill="none" xmlns="http://www.w3.org/2000/svg">
<g clip-path="url(#clip0_283_1413)">
<path d="M8.26568 1.11328C8.32818 0.828125 8.58209 0.625 8.87505 0.625H11.1251C11.418 0.625 11.6719 0.828125 11.7344 1.11328L12.2383 3.34375C12.2618 3.44531 12.336 3.53125 12.4336 3.56641C13.1329 3.83203 13.7813 4.20703 14.3516 4.67578C14.4336 4.74219 14.543 4.76172 14.6407 4.73047L16.8282 4.05078C17.1055 3.96484 17.4102 4.08203 17.5547 4.33594L18.6836 6.28906C18.8282 6.54297 18.7813 6.86328 18.5665 7.0625L16.8829 8.61719C16.8047 8.6875 16.7696 8.79297 16.7852 8.89844C16.8438 9.25781 16.8751 9.62891 16.8751 10.0078C16.8751 10.3867 16.8438 10.7539 16.7852 11.1172C16.7696 11.2188 16.8047 11.3242 16.8829 11.3984L18.5665 12.9531C18.7813 13.1523 18.8282 13.4727 18.6836 13.7266L17.5547 15.6641C17.4102 15.918 17.1055 16.0352 16.8282 15.9492L14.6407 15.2695C14.5391 15.2383 14.4297 15.2578 14.3516 15.3242C13.7813 15.7891 13.1329 16.168 12.4336 16.4336C12.336 16.4727 12.2618 16.5547 12.2383 16.6562L11.7344 18.8867C11.6719 19.1719 11.418 19.375 11.1251 19.375H8.87505C8.58209 19.375 8.32818 19.1719 8.26568 18.8867L7.76177 16.6562C7.73834 16.5547 7.66412 16.4688 7.56646 16.4336C6.86724 16.168 6.2188 15.793 5.64849 15.3242C5.56646 15.2578 5.45709 15.2383 5.35943 15.2695L3.17193 15.9492C2.89459 16.0352 2.5899 15.918 2.44537 15.6641L1.31646 13.7109C1.17193 13.457 1.2188 13.1367 1.43365 12.9375L3.11724 11.3828C3.19537 11.3125 3.23052 11.207 3.2149 11.1016C3.1563 10.7461 3.12505 10.3789 3.12505 10C3.12505 9.62109 3.1563 9.25391 3.2149 8.89062C3.23052 8.78906 3.19537 8.68359 3.11724 8.60938L1.43365 7.05859C1.2188 6.85938 1.17193 6.53906 1.31646 6.28516L2.44537 4.33594C2.5899 4.08203 2.89459 3.96484 3.17193 4.05078L5.35943 4.73047C5.46099 4.76172 5.57037 4.74219 5.64849 4.67578C6.2188 4.20703 6.86724 3.83203 7.56646 3.56641C7.66412 3.52734 7.73834 3.44531 7.76177 3.34375L8.26568 1.11328ZM8.87505 0C8.28912 0 7.78521 0.40625 7.6563 0.976562L7.18755 3.04688C6.53521 3.3125 5.92974 3.66406 5.38677 4.08984L3.35552 3.45703C2.79693 3.28125 2.19537 3.51953 1.9024 4.02344L0.777398 5.97656C0.484429 6.48438 0.582086 7.125 1.01177 7.51953L2.57037 8.96094C2.52349 9.30078 2.50005 9.64844 2.50005 10C2.50005 10.3516 2.52349 10.6992 2.57037 11.0391L1.01177 12.4805C0.582086 12.875 0.484429 13.5195 0.777398 14.0234L1.9024 15.9766C2.19537 16.4844 2.79693 16.7188 3.35552 16.5469L5.38287 15.9141C5.92974 16.3398 6.53521 16.6914 7.18365 16.957L7.6524 19.0273C7.7813 19.5977 8.28912 20.0039 8.87115 20.0039H11.1211C11.7071 20.0039 12.211 19.5977 12.3399 19.0273L12.8086 16.957C13.461 16.6953 14.0665 16.3398 14.6094 15.9141L16.6368 16.5469C17.1954 16.7188 17.7969 16.4844 18.0899 15.9766L19.2227 14.0234C19.5157 13.5156 19.418 12.875 18.9883 12.4805L17.4297 11.0391C17.4766 10.6992 17.5001 10.3516 17.5001 10C17.5001 9.64844 17.4766 9.30078 17.4297 8.96094L18.9883 7.51953C19.418 7.125 19.5157 6.48047 19.2227 5.97656L18.0977 4.02344C17.8047 3.51562 17.2032 3.28125 16.6446 3.45312L14.6172 4.08594C14.0704 3.66016 13.4649 3.30859 12.8126 3.04688L12.3438 0.976562C12.2149 0.40625 11.7071 0 11.1251 0H8.87505ZM7.50005 10C7.50005 9.33696 7.76345 8.70107 8.23229 8.23223C8.70113 7.76339 9.33701 7.5 10.0001 7.5C10.6631 7.5 11.299 7.76339 11.7678 8.23223C12.2367 8.70107 12.5001 9.33696 12.5001 10C12.5001 10.663 12.2367 11.2989 11.7678 11.7678C11.299 12.2366 10.6631 12.5 10.0001 12.5C9.33701 12.5 8.70113 12.2366 8.23229 11.7678C7.76345 11.2989 7.50005 10.663 7.50005 10ZM13.1251 10C13.1251 9.1712 12.7958 8.37634 12.2098 7.79029C11.6237 7.20424 10.8289 6.875 10.0001 6.875C9.17125 6.875 8.3764 7.20424 7.79035 7.79029C7.20429 8.37634 6.87505 9.1712 6.87505 10C6.87505 10.8288 7.20429 11.6237 7.79035 12.2097C8.3764 12.7958 9.17125 13.125 10.0001 13.125C10.8289 13.125 11.6237 12.7958 12.2098 12.2097C12.7958 11.6237 13.1251 10.8288 13.1251 10Z" fill="black"/>
</g>
<defs>
<clipPath id="clip0_283_1413">
<rect width="20" height="20" fill="white"/>
</clipPath>
</defs>
</svg>
