<svg width="20" height="21" viewBox="0 0 20 21" fill="none" xmlns="http://www.w3.org/2000/svg">
<g clip-path="url(#clip0_187_968)">
<path d="M10 19.875C11.0156 19.875 12.1055 19.0352 12.9766 17.293C13.4062 16.4375 13.7539 15.4062 14 14.25H6.00391C6.24609 15.4023 6.59766 16.4336 7.02734 17.293C7.89453 19.0352 8.98438 19.875 10 19.875ZM5.88281 13.625H14.1172C14.2852 12.6484 14.375 11.5977 14.375 10.5C14.375 9.40234 14.2852 8.35156 14.1172 7.375H5.88281C5.71484 8.35156 5.625 9.40234 5.625 10.5C5.625 11.5977 5.71484 12.6484 5.88281 13.625ZM6 6.75H13.9961C13.7539 5.59375 13.4023 4.56641 12.9727 3.70703C12.1055 1.96484 11.0156 1.125 10 1.125C8.98438 1.125 7.89453 1.96484 7.02344 3.70703C6.59375 4.5625 6.24609 5.59375 6 6.75ZM14.75 7.375C14.9102 8.35938 15 9.41016 15 10.5C15 11.5898 14.9141 12.6406 14.75 13.625H18.8398C19.1836 12.6484 19.375 11.5977 19.375 10.5C19.375 9.40234 19.1875 8.35156 18.8398 7.375H14.75ZM18.5938 6.75C17.4062 4.03516 14.9688 1.98828 12.0117 1.33984C13.2031 2.38672 14.1484 4.33203 14.6367 6.75H18.5938ZM5.36328 6.75C5.85156 4.33594 6.80078 2.38672 7.98828 1.33984C5.03125 1.98828 2.59375 4.03516 1.40625 6.75H5.36328ZM1.16016 7.375C0.8125 8.35156 0.625 9.40234 0.625 10.5C0.625 11.5977 0.8125 12.6484 1.16016 13.625H5.25C5.08984 12.6406 5 11.5898 5 10.5C5 9.41016 5.08594 8.35938 5.25 7.375H1.16016ZM12.0117 19.6602C14.9688 19.0117 17.4062 16.9648 18.5938 14.25H14.6367C14.1484 16.6641 13.1992 18.6133 12.0117 19.6602ZM7.99219 19.6602C6.80078 18.6133 5.85547 16.668 5.36719 14.25H1.40625C2.59375 16.9648 5.03125 19.0117 7.99219 19.6602ZM10 20.5C7.34784 20.5 4.8043 19.4464 2.92893 17.5711C1.05357 15.6957 0 13.1522 0 10.5C0 7.84784 1.05357 5.3043 2.92893 3.42893C4.8043 1.55357 7.34784 0.5 10 0.5C12.6522 0.5 15.1957 1.55357 17.0711 3.42893C18.9464 5.3043 20 7.84784 20 10.5C20 13.1522 18.9464 15.6957 17.0711 17.5711C15.1957 19.4464 12.6522 20.5 10 20.5Z" fill="black"/>
</g>
<defs>
<clipPath id="clip0_187_968">
<rect width="20" height="20" fill="white" transform="translate(0 0.5)"/>
</clipPath>
</defs>
</svg>
