<svg width="20" height="20" viewBox="0 0 20 20" fill="none" xmlns="http://www.w3.org/2000/svg">
<path d="M2.5 1.875C1.46484 1.875 0.625 2.71484 0.625 3.75V13.9336L4.11719 10.4414C4.60547 9.95312 5.39844 9.95312 5.88672 10.4414L8.75 13.3086L14.1172 7.94141C14.6055 7.45312 15.3984 7.45312 15.8867 7.94141L19.375 11.4336V3.75C19.375 2.71484 18.5352 1.875 17.5 1.875H2.5ZM0.625 14.8164V16.25C0.625 17.2852 1.46484 18.125 2.5 18.125H3.93359L8.30859 13.75L5.44141 10.8828C5.19922 10.6406 4.80078 10.6406 4.55859 10.8828L0.625 14.8164ZM15.4414 8.38281C15.1992 8.14063 14.8008 8.14063 14.5586 8.38281L4.81641 18.125H17.5C18.5352 18.125 19.375 17.2852 19.375 16.25V12.3164L15.4414 8.38281ZM0 3.75C0 2.37109 1.12109 1.25 2.5 1.25H17.5C18.8789 1.25 20 2.37109 20 3.75V16.25C20 17.6289 18.8789 18.75 17.5 18.75H2.5C1.12109 18.75 0 17.6289 0 16.25V3.75ZM6.5625 6.25C6.5625 5.8356 6.39788 5.43817 6.10485 5.14515C5.81183 4.85212 5.4144 4.6875 5 4.6875C4.5856 4.6875 4.18817 4.85212 3.89515 5.14515C3.60212 5.43817 3.4375 5.8356 3.4375 6.25C3.4375 6.6644 3.60212 7.06183 3.89515 7.35485C4.18817 7.64788 4.5856 7.8125 5 7.8125C5.4144 7.8125 5.81183 7.64788 6.10485 7.35485C6.39788 7.06183 6.5625 6.6644 6.5625 6.25ZM2.8125 6.25C2.8125 5.66984 3.04297 5.11344 3.4532 4.7032C3.86344 4.29297 4.41984 4.0625 5 4.0625C5.58016 4.0625 6.13656 4.29297 6.5468 4.7032C6.95703 5.11344 7.1875 5.66984 7.1875 6.25C7.1875 6.83016 6.95703 7.38656 6.5468 7.7968C6.13656 8.20703 5.58016 8.4375 5 8.4375C4.41984 8.4375 3.86344 8.20703 3.4532 7.7968C3.04297 7.38656 2.8125 6.83016 2.8125 6.25Z" fill="black"/>
</svg>
