<svg width="20" height="20" viewBox="0 0 20 20" fill="none" xmlns="http://www.w3.org/2000/svg">
<g clip-path="url(#clip0_203_1062)">
<path d="M19.9102 10.2227C20.0312 10.1016 20.0312 9.90234 19.9102 9.78125L14.5977 4.46875C14.4766 4.34766 14.2773 4.34766 14.1562 4.46875C14.0352 4.58984 14.0352 4.78906 14.1562 4.91016L18.9336 9.6875H6.5625C6.39062 9.6875 6.25 9.82812 6.25 10C6.25 10.1719 6.39062 10.3125 6.5625 10.3125H18.9336L14.1523 15.0898C14.0312 15.2109 14.0312 15.4102 14.1523 15.5312C14.2734 15.6523 14.4727 15.6523 14.5938 15.5312L19.9062 10.2188L19.9102 10.2227ZM7.1875 1.875C7.35938 1.875 7.5 1.73438 7.5 1.5625C7.5 1.39062 7.35938 1.25 7.1875 1.25H3.4375C1.53906 1.25 0 2.78906 0 4.6875V15.3125C0 17.2109 1.53906 18.75 3.4375 18.75H7.1875C7.35938 18.75 7.5 18.6094 7.5 18.4375C7.5 18.2656 7.35938 18.125 7.1875 18.125H3.4375C1.88281 18.125 0.625 16.8672 0.625 15.3125V4.6875C0.625 3.13281 1.88281 1.875 3.4375 1.875H7.1875Z" fill="#FF6633"/>
</g>
<defs>
<clipPath id="clip0_203_1062">
<rect width="20" height="20" fill="white"/>
</clipPath>
</defs>
</svg>
