<svg width="250" height="69" viewBox="0 0 250 69" fill="none" xmlns="http://www.w3.org/2000/svg">
<path d="M5.67073 66.8633C9.29878 66.8633 11.372 65.062 11.372 61.0166C11.372 56.9865 9.29878 55.1852 5.67073 55.1852C2.05793 55.1852 0 56.9865 0 61.0166C0 65.062 2.05793 66.8633 5.67073 66.8633ZM5.67073 65.7489C2.60671 65.7489 1.20427 64.1002 1.20427 61.0319C1.20427 57.9788 2.60671 56.3301 5.67073 56.3301C8.75 56.3301 10.1677 57.9788 10.1677 61.0319C10.1677 64.1002 8.75 65.7489 5.67073 65.7489Z" fill="#6D6E71"/>
<path d="M20 66.8633C23.628 66.8633 25.7012 65.062 25.7012 61.0166C25.7012 56.9865 23.628 55.1852 20 55.1852C16.3872 55.1852 14.3292 56.9865 14.3292 61.0166C14.3292 65.062 16.3872 66.8633 20 66.8633ZM20 65.7489C16.9359 65.7489 15.5335 64.1002 15.5335 61.0319C15.5335 57.9788 16.9359 56.3301 20 56.3301C23.0792 56.3301 24.4969 57.9788 24.4969 61.0319C24.4969 64.1002 23.0792 65.7489 20 65.7489Z" fill="#6D6E71"/>
<path d="M29.2683 66.5576H30.4726V61.2452H37.2561V66.5576H38.4451V55.2459H37.2561V60.0698H30.4726V55.2459H29.2683V66.5576Z" fill="#6D6E71"/>
<path d="M47.5609 66.5576H48.7042V57.2457L52.6829 66.5576H53.689L57.6676 57.2457V66.5576H58.8414V55.2459H57.317L53.2012 64.8937L49.1158 55.2459H47.5609V66.5576Z" fill="#6D6E71"/>
<path d="M63.1097 66.5576H70.6402V65.4585H64.314V61.2605H70.4268V60.1308H64.314V56.3908H70.5793V55.2459H63.1097V66.5576Z" fill="#6D6E71"/>
<path d="M74.3903 66.5576H77.8811C82.1342 66.5576 83.872 65.1685 83.872 60.8941C83.872 56.5282 82.3171 55.2459 78.0793 55.2459H74.3903V66.5576ZM75.5945 65.4585V56.3755H78.0945C81.6768 56.3755 82.6677 57.4747 82.6677 60.8941C82.6677 64.2525 81.4939 65.4585 77.9268 65.4585H75.5945Z" fill="#6D6E71"/>
<path d="M87.5 66.5576H88.6738V55.2459H87.5V66.5576Z" fill="#6D6E71"/>
<path d="M91.7683 66.5576H92.9573L93.9787 63.9472H99.7714L100.808 66.5576H102.027L97.5 55.1696H96.2958L91.7683 66.5576ZM94.3903 62.8481L96.875 56.6198L99.3445 62.8481H94.3903Z" fill="#6D6E71"/>
<path d="M110.671 66.5576H111.845V55.2459H110.671V66.5576Z" fill="#6D6E71"/>
<path d="M116.159 66.5576H117.317V56.9556L124.284 66.5576H125.381V55.2459H124.223V64.5731L117.47 55.2459H116.159V66.5576Z" fill="#6D6E71"/>
<path d="M132.896 66.5576H134.101V56.3908H138.338V55.2459H128.659V56.3908H132.896V66.5576Z" fill="#6D6E71"/>
<path d="M141.463 66.5576H148.994V65.4585H142.668V61.2605H148.78V60.1308H142.668V56.3908H148.933V55.2459H141.463V66.5576Z" fill="#6D6E71"/>
<path d="M152.744 66.5576H159.954V65.4585H153.948V55.2459H152.744V66.5576Z" fill="#6D6E71"/>
<path d="M163.11 66.5576H170.32V65.4585H164.314V55.2459H163.11V66.5576Z" fill="#6D6E71"/>
<path d="M173.781 66.5576H174.954V55.2459H173.781V66.5576Z" fill="#6D6E71"/>
<path d="M184.207 66.8633C188.354 66.8633 189.146 64.8635 189.146 61.7951V60.5128H184.146V61.6272H187.957V61.9936C187.957 64.4971 187.287 65.7947 184.253 65.7947C181.067 65.7947 179.848 64.2529 179.848 61.0471C179.848 57.8414 181.326 56.3454 184.268 56.3454C185.869 56.3454 186.814 56.8491 187.531 57.475L188.384 56.6049C187.652 55.9027 186.433 55.2004 184.268 55.2004C180.671 55.2004 178.659 56.956 178.659 61.0319C178.659 64.894 180.198 66.8633 184.207 66.8633Z" fill="#6D6E71"/>
<path d="M192.683 66.5576H200.213V65.4585H193.887V61.2605H200V60.1308H193.887V56.3908H200.152V55.2459H192.683V66.5576Z" fill="#6D6E71"/>
<path d="M203.963 66.5576H205.122V56.9556L212.088 66.5576H213.186V55.2459H212.027V64.5731L205.274 55.2459H203.963V66.5576Z" fill="#6D6E71"/>
<path d="M222.027 66.8633C224.223 66.8633 225.335 66.1458 226.113 65.3825L225.274 64.5735C224.604 65.1993 223.78 65.7336 222.088 65.7336C219.07 65.7336 217.668 64.1308 217.668 61.0471C217.668 57.9177 219.162 56.3454 222.073 56.3454C223.308 56.3454 224.375 56.7423 225.183 57.475L226.037 56.6201C225.046 55.6737 223.689 55.2004 222.088 55.2004C218.506 55.2004 216.463 57.0781 216.463 61.0319C216.463 64.8635 218.232 66.8633 222.027 66.8633Z" fill="#6D6E71"/>
<path d="M229.878 66.5576H237.409V65.4585H231.082V61.2605H237.195V60.1308H231.082V56.3908H237.348V55.2459H229.878V66.5576Z" fill="#6D6E71"/>
<path d="M237.131 43.0548H220.952V27.3288L202.823 27.3288V43.0548L186.645 43.0548V2.03408L202.823 2.03408V14.6251L220.952 14.6251V2.03408H237.131V43.0548ZM237.131 43.0548H220.952V27.3288L202.823 27.3288V43.0548L186.645 43.0548V2.03408L202.823 2.03408V14.6251L220.952 14.6251V2.03408H237.131V43.0548ZM163.697 22.2269C163.697 14.7024 160.216 10.939 153.255 10.939C149.928 10.939 147.423 11.5917 145.74 12.8965C143.445 14.6635 142.298 17.7742 142.298 22.2269C142.298 27.0267 143.483 30.367 145.854 32.249C147.499 33.516 149.966 34.1493 153.255 34.1493C156.315 34.1493 158.725 33.3048 160.484 31.6151C162.625 29.5809 163.697 26.4519 163.697 22.2269ZM180.965 22.257C180.965 30.2997 178.46 36.1228 173.449 39.7227C169.012 42.9019 162.281 44.4912 153.255 44.4912C143.962 44.4912 137.057 42.9208 132.545 39.78C127.458 36.2178 124.915 30.377 124.915 22.257C124.915 14.4439 127.419 8.79434 132.43 5.30887C136.943 2.16864 143.884 0.597637 153.255 0.597637C162.32 0.597637 169.09 2.18752 173.564 5.36611C178.498 8.89053 180.965 14.5206 180.965 22.257ZM104.147 22.2269C104.147 14.7024 100.666 10.939 93.7052 10.939C90.3779 10.939 87.8721 11.5917 86.1901 12.8965C83.8947 14.6635 82.7473 17.7742 82.7473 22.2269C82.7473 27.0267 83.9324 30.367 86.3045 32.249C87.9487 33.516 90.4156 34.1493 93.7052 34.1493C96.765 34.1493 99.1741 33.3048 100.934 31.6151C103.075 29.5809 104.147 26.4519 104.147 22.2269ZM121.415 22.257C121.415 30.2997 118.91 36.1228 113.9 39.7227C109.463 42.9019 102.731 44.4912 93.7052 44.4912C84.411 44.4912 77.5071 42.9208 72.9946 39.78C67.9076 36.2178 65.3646 30.377 65.3646 22.257C65.3646 14.4439 67.8687 8.79434 72.8797 5.30887C77.3921 2.16864 84.3344 0.597637 93.7052 0.597637C102.77 0.597637 109.54 2.18752 114.014 5.36611C118.948 8.89053 121.415 14.5206 121.415 22.257ZM59.5698 43.0548H44.8827L44.8827 13.5817H44.7106L36.2774 43.0548L23.8851 43.0548L15.1643 13.6389H15.1649L15.1649 43.0548H0.535522L0.535522 2.03408H23.1549L29.9351 25.713L30.086 25.6888L36.7948 2.03408H59.5698" fill="#FF6633"/>
<path d="M59.5698 43.0547H44.8827L44.8827 13.5816H44.7106L36.2774 43.0547L23.8851 43.0547L15.1643 13.6389H15.1649L15.1649 43.0547H0.535522L0.535522 2.034H23.1549L29.9351 25.7129L30.086 25.6887L36.7948 2.034H59.5698" fill="#6D6E71"/>
<path d="M243.615 2.25122V2.7469H242.215V6.41211H241.644V2.7469H240.244V2.25122H243.615Z" fill="#6D6E71"/>
<path d="M244.817 2.25122H245.623L246.817 5.76914L248.002 2.25122L248.799 2.25122V6.41211L248.265 6.41211V3.95636C248.265 3.87139 248.267 3.73071 248.271 3.53433C248.274 3.33794 248.276 3.1274 248.276 2.90269L247.091 6.41211H246.534L245.34 2.90269V3.03015C245.34 3.13212 245.342 3.2879 245.346 3.4975C245.352 3.70522 245.354 3.85817 245.354 3.95636V6.41211H244.817V2.25122Z" fill="#6D6E71"/>
</svg>
