<svg width="21" height="17" viewBox="0 0 21 17" fill="none" xmlns="http://www.w3.org/2000/svg">
<g clip-path="url(#clip0_291_906)">
<path d="M1.82209 6.68398C4.15647 4.62773 7.21897 3.38086 10.5752 3.38086C13.9315 3.38086 16.994 4.62773 19.3283 6.68398C19.6377 6.95898 20.1127 6.92773 20.3877 6.61523C20.6627 6.30273 20.6315 5.83086 20.319 5.55586C17.7221 3.26836 14.3096 1.88086 10.5752 1.88086C6.84084 1.88086 3.42834 3.26836 0.831469 5.55586C0.522094 5.83086 0.490844 6.30273 0.762719 6.61523C1.03459 6.92773 1.50959 6.95586 1.82209 6.68398ZM10.5752 8.88086C12.594 8.88086 14.4346 9.65273 15.8127 10.9184C16.119 11.1996 16.5908 11.1777 16.8721 10.8715C17.1533 10.5652 17.1315 10.0934 16.8252 9.81211C15.1815 8.30273 12.9846 7.38086 10.5752 7.38086C8.16584 7.38086 5.96897 8.30273 4.32209 9.81523C4.01584 10.0965 3.99709 10.5684 4.27522 10.8746C4.55334 11.1809 5.02834 11.1996 5.33459 10.9215C6.71584 9.65273 8.55647 8.88086 10.5752 8.88086ZM12.3252 14.1309C12.3252 13.901 12.28 13.6735 12.192 13.4612C12.1041 13.2488 11.9752 13.0559 11.8127 12.8934C11.6502 12.7309 11.4572 12.602 11.2449 12.5141C11.0326 12.4261 10.805 12.3809 10.5752 12.3809C10.3454 12.3809 10.1178 12.4261 9.90552 12.5141C9.6932 12.602 9.50028 12.7309 9.33778 12.8934C9.17528 13.0559 9.04638 13.2488 8.95843 13.4612C8.87048 13.6735 8.82522 13.901 8.82522 14.1309C8.82522 14.3607 8.87048 14.5882 8.95843 14.8006C9.04638 15.0129 9.17528 15.2058 9.33778 15.3683C9.50028 15.5308 9.6932 15.6597 9.90552 15.7476C10.1178 15.8356 10.3454 15.8809 10.5752 15.8809C10.805 15.8809 11.0326 15.8356 11.2449 15.7476C11.4572 15.6597 11.6502 15.5308 11.8127 15.3683C11.9752 15.2058 12.1041 15.0129 12.192 14.8006C12.28 14.5882 12.3252 14.3607 12.3252 14.1309Z" fill="black"/>
</g>
<defs>
<clipPath id="clip0_291_906">
<rect width="20" height="16" fill="white" transform="translate(0.575195 0.880859)"/>
</clipPath>
</defs>
</svg>
